{
  "accessors": [
    {
      "bufferView": 2,
      "componentType": 5126,
      "count": 4,
      "max": [
        -67.99079895019531,
        20.966299057006836,
        49.40399932861328
      ],
      "min": [
        -69.3595962524414,
        20.966299057006836,
        40.95140075683594
      ],
      "type": "VEC3"
    },
    {
      "bufferView": 2,
      "byteOffset": 48,
      "componentType": 5126,
      "count": 4,
      "max": [
        0.0,
        -1.0,
        0.0
      ],
      "min": [
        0.0,
        -1.0,
        0.0
      ],
      "type": "VEC3"
    },
    {
      "bufferView": 1,
      "componentType": 5126,
      "count": 4,
      "max": [
        0.08399999886751175,
        1.0
      ],
      "min": [
        0.0,
        0.0
      ],
      "type": "VEC2"
    },
    {
      "bufferView": 0,
      "componentType": 5125,
      "count": 6,
      "type": "SCALAR"
    },
    {
      "bufferView": 2,
      "byteOffset": 96,
      "componentType": 5126,
      "count": 18,
      "max": [
        -67.99079895019531,
        21.393600463867188,
        49.40399932861328
      ],
      "min": [
        -69.55699920654297,
        12.41450023651123,
        39.317901611328125
      ],
      "type": "VEC3"
    },
    {
      "bufferView": 2,
      "byteOffset": 312,
      "componentType": 5126,
      "count": 18,
      "max": [
        -1.0,
        0.0,
        0.0
      ],
      "min": [
        -1.0,
        0.0,
        0.0
      ],
      "type": "VEC3"
    },
    {
      "bufferView": 1,
      "byteOffset": 32,
      "componentType": 5126,
      "count": 18,
      "max": [
        1.0,
        1.0
      ],
      "min": [
        0.0,
        -0.1932000070810318
      ],
      "type": "VEC2"
    },
    {
      "bufferView": 0,
      "byteOffset": 24,
      "componentType": 5125,
      "count": 42,
      "type": "SCALAR"
    },
    {
      "bufferView": 2,
      "byteOffset": 528,
      "componentType": 5126,
      "count": 9824,
      "max": [
        76.66169738769531,
        83.11830139160156,
        166.9864959716797
      ],
      "min": [
        -73.7750015258789,
        -101.22270202636719,
        -67.99829864501953
      ],
      "type": "VEC3"
    },
    {
      "bufferView": 2,
      "byteOffset": 118416,
      "componentType": 5126,
      "count": 9824,
      "max": [
        1.0,
        1.0,
        1.0
      ],
      "min": [
        -1.0,
        -1.0,
        -1.0
      ],
      "type": "VEC3"
    },
    {
      "bufferView": 1,
      "byteOffset": 176,
      "componentType": 5126,
      "count": 9824,
      "max": [
        1.0277999639511108,
        1.0
      ],
      "min": [
        -0.027799999341368675,
        0.0
      ],
      "type": "VEC2"
    },
    {
      "bufferView": 0,
      "byteOffset": 192,
      "componentType": 5125,
      "count": 20892,
      "type": "SCALAR"
    },
    {
      "bufferView": 2,
      "byteOffset": 236304,
      "componentType": 5126,
      "count": 262,
      "max": [
        59.572601318359375,
        21.89459991455078,
        163.66090393066406
      ],
      "min": [
        -71.3134994506836,
        -73.61430358886719,
        -32.1265983581543
      ],
      "type": "VEC3"
    },
    {
      "bufferView": 2,
      "byteOffset": 239448,
      "componentType": 5126,
      "count": 262,
      "max": [
        1.0,
        1.0,
        1.0
      ],
      "min": [
        -1.0,
        -1.0,
        -1.0
      ],
      "type": "VEC3"
    },
    {
      "bufferView": 1,
      "byteOffset": 78768,
      "componentType": 5126,
      "count": 262,
      "max": [
        0.9923999905586243,
        1.0
      ],
      "min": [
        -0.027799999341368675,
        0.0
      ],
      "type": "VEC2"
    },
    {
      "bufferView": 0,
      "byteOffset": 83760,
      "componentType": 5125,
      "count": 546,
      "type": "SCALAR"
    },
    {
      "bufferView": 2,
      "byteOffset": 242592,
      "componentType": 5126,
      "count": 45,
      "max": [
        85.03849792480469,
        68.31649780273438,
        75.19270324707031
      ],
      "min": [
        -69.3595962524414,
        -86.16200256347656,
        -10.47189998626709
      ],
      "type": "VEC3"
    },
    {
      "bufferView": 2,
      "byteOffset": 243132,
      "componentType": 5126,
      "count": 45,
      "max": [
        1.0,
        0.9740327000617981,
        0.22640761733055115
      ],
      "min": [
        -1.0,
        -0.9740327000617981,
        -1.0
      ],
      "type": "VEC3"
    },
    {
      "bufferView": 1,
      "byteOffset": 80864,
      "componentType": 5126,
      "count": 45,
      "max": [
        1.3587000370025635,
        0.9293000102043152
      ],
      "min": [
        -0.3587000072002411,
        0.07069999724626541
      ],
      "type": "VEC2"
    },
    {
      "bufferView": 0,
      "byteOffset": 85944,
      "componentType": 5125,
      "count": 111,
      "type": "SCALAR"
    },
    {
      "bufferView": 2,
      "byteOffset": 243672,
      "componentType": 5126,
      "count": 440,
      "max": [
        72.39409637451172,
        87.92610168457031,
        0.38850000500679016
      ],
      "min": [
        -67.17780303955078,
        -106.03050231933594,
        -68.89140319824219
      ],
      "type": "VEC3"
    },
    {
      "bufferView": 2,
      "byteOffset": 248952,
      "componentType": 5126,
      "count": 440,
      "max": [
        1.0,
        0.9848158359527588,
        1.0
      ],
      "min": [
        -1.0,
        -0.9848158359527588,
        -1.0
      ],
      "type": "VEC3"
    },
    {
      "bufferView": 1,
      "byteOffset": 81224,
      "componentType": 5126,
      "count": 440,
      "max": [
        1.0277999639511108,
        1.0
      ],
      "min": [
        0.007600000128149986,
        0.0
      ],
      "type": "VEC2"
    },
    {
      "bufferView": 0,
      "byteOffset": 86388,
      "componentType": 5125,
      "count": 1440,
      "type": "SCALAR"
    },
    {
      "bufferView": 2,
      "byteOffset": 254232,
      "componentType": 5126,
      "count": 24,
      "max": [
        -67.99079895019531,
        20.966299057006836,
        49.40399932861328
      ],
      "min": [
        -69.3595962524414,
        12.41450023651123,
        39.317901611328125
      ],
      "type": "VEC3"
    },
    {
      "bufferView": 2,
      "byteOffset": 254520,
      "componentType": 5126,
      "count": 24,
      "max": [
        0.0,
        1.0,
        1.0
      ],
      "min": [
        0.0,
        -1.0,
        0.0
      ],
      "type": "VEC3"
    },
    {
      "bufferView": 1,
      "byteOffset": 84744,
      "componentType": 5126,
      "count": 24,
      "max": [
        1.0,
        1.0
      ],
      "min": [
        0.0,
        0.0
      ],
      "type": "VEC2"
    },
    {
      "bufferView": 0,
      "byteOffset": 92148,
      "componentType": 5125,
      "count": 36,
      "type": "SCALAR"
    },
    {
      "bufferView": 2,
      "byteOffset": 254808,
      "componentType": 5126,
      "count": 2010,
      "max": [
        48.965301513671875,
        46.38880157470703,
        -0.48159998655319214
      ],
      "min": [
        -66.3270034790039,
        -63.724998474121094,
        -43.59379959106445
      ],
      "type": "VEC3"
    },
    {
      "bufferView": 2,
      "byteOffset": 278928,
      "componentType": 5126,
      "count": 2010,
      "max": [
        0.9848158359527588,
        1.0,
        1.0
      ],
      "min": [
        -0.9848158359527588,
        -1.0,
        -1.0
      ],
      "type": "VEC3"
    },
    {
      "bufferView": 1,
      "byteOffset": 84936,
      "componentType": 5126,
      "count": 2010,
      "max": [
        1.0277999639511108,
        1.0
      ],
      "min": [
        0.007600000128149986,
        0.0
      ],
      "type": "VEC2"
    },
    {
      "bufferView": 0,
      "byteOffset": 92292,
      "componentType": 5125,
      "count": 4020,
      "type": "SCALAR"
    }
  ],
  "asset": {
    "extras": {
      "author": "sohamr.sr (https://sketchfab.com/sohamr.sr)",
      "license": "CC-BY-4.0 (http://creativecommons.org/licenses/by/4.0/)",
      "source": "https://sketchfab.com/3d-models/vikram-lander-a841f322833d4db29e5ab74cdb1c0d24",
      "title": "Vikram Lander"
    },
    "generator": "Sketchfab-12.59.0",
    "version": "2.0"
  },
  "bufferViews": [
    {
      "buffer": 0,
      "byteLength": 108372,
      "name": "floatBufferViews",
      "target": 34963
    },
    {
      "buffer": 0,
      "byteLength": 101016,
      "byteOffset": 108372,
      "byteStride": 8,
      "name": "floatBufferViews",
      "target": 34962
    },
    {
      "buffer": 0,
      "byteLength": 303048,
      "byteOffset": 209388,
      "byteStride": 12,
      "name": "floatBufferViews",
      "target": 34962
    }
  ],
  "buffers": [
    {
      "byteLength": 512436,
      "uri": "scene.bin"
    }
  ],
  "images": [
    {
      "uri": "textures/Material__27_baseColor.jpeg"
    },
    {
      "uri": "textures/Material__97_baseColor.jpeg"
    }
  ],
  "materials": [
    {
      "doubleSided": true,
      "name": "03___Default",
      "pbrMetallicRoughness": {
        "baseColorFactor": [
          0.9700679790705267,
          0.9603388775630075,
          0.9603388775630075,
          1.0
        ],
        "metallicFactor": 0.0,
        "roughnessFactor": 0.6
      }
    },
    {
      "doubleSided": true,
      "name": "Material__27",
      "pbrMetallicRoughness": {
        "baseColorTexture": {
          "index": 0
        },
        "metallicFactor": 0.0,
        "roughnessFactor": 0.6
      }
    },
    {
      "doubleSided": true,
      "name": "Material__28",
      "pbrMetallicRoughness": {
        "metallicFactor": 0.0,
        "roughnessFactor": 0.6
      }
    },
    {
      "doubleSided": true,
      "name": "Material__72",
      "pbrMetallicRoughness": {
        "metallicFactor": 0.0,
        "roughnessFactor": 0.6
      }
    },
    {
      "doubleSided": true,
      "name": "Material__97",
      "pbrMetallicRoughness": {
        "baseColorTexture": {
          "index": 1
        },
        "metallicFactor": 0.0,
        "roughnessFactor": 0.6
      }
    },
    {
      "doubleSided": true,
      "name": "wire_015015015",
      "pbrMetallicRoughness": {
        "baseColorFactor": [
          0.0693571372228666,
          0.058158460354972547,
          0.058158460354972547,
          1.0
        ],
        "metallicFactor": 0.0,
        "roughnessFactor": 0.6
      }
    },
    {
      "doubleSided": true,
      "name": "wire_043043043",
      "pbrMetallicRoughness": {
        "baseColorFactor": [
          0.09001585088471749,
          0.07374600882712118,
          0.07374600882712118,
          1.0
        ],
        "metallicFactor": 0.0,
        "roughnessFactor": 0.6
      }
    }
  ],
  "meshes": [
    {
      "name": "Object_0",
      "primitives": [
        {
          "attributes": {
            "NORMAL": 1,
            "POSITION": 0,
            "TEXCOORD_0": 2
          },
          "indices": 3,
          "material": 3,
          "mode": 4
        }
      ]
    },
    {
      "name": "Object_1",
      "primitives": [
        {
          "attributes": {
            "NORMAL": 5,
            "POSITION": 4,
            "TEXCOORD_0": 6
          },
          "indices": 7,
          "material": 0,
          "mode": 4
        }
      ]
    },
    {
      "name": "Object_2",
      "primitives": [
        {
          "attributes": {
            "NORMAL": 9,
            "POSITION": 8,
            "TEXCOORD_0": 10
          },
          "indices": 11,
          "material": 1,
          "mode": 4
        }
      ]
    },
    {
      "name": "Object_3",
      "primitives": [
        {
          "attributes": {
            "NORMAL": 13,
            "POSITION": 12,
            "TEXCOORD_0": 14
          },
          "indices": 15,
          "material": 1,
          "mode": 4
        }
      ]
    },
    {
      "name": "Object_4",
      "primitives": [
        {
          "attributes": {
            "NORMAL": 17,
            "POSITION": 16,
            "TEXCOORD_0": 18
          },
          "indices": 19,
          "material": 4,
          "mode": 4
        }
      ]
    },
    {
      "name": "Object_5",
      "primitives": [
        {
          "attributes": {
            "NORMAL": 21,
            "POSITION": 20,
            "TEXCOORD_0": 22
          },
          "indices": 23,
          "material": 5,
          "mode": 4
        }
      ]
    },
    {
      "name": "Object_6",
      "primitives": [
        {
          "attributes": {
            "NORMAL": 25,
            "POSITION": 24,
            "TEXCOORD_0": 26
          },
          "indices": 27,
          "material": 2,
          "mode": 4
        }
      ]
    },
    {
      "name": "Object_7",
      "primitives": [
        {
          "attributes": {
            "NORMAL": 29,
            "POSITION": 28,
            "TEXCOORD_0": 30
          },
          "indices": 31,
          "material": 6,
          "mode": 4
        }
      ]
    }
  ],
  "nodes": [
    {
      "children": [
        1
      ],
      "matrix": [
        1.0,
        0.0,
        0.0,
        0.0,
        0.0,
        2.220446049250313e-16,
        -1.0,
        0.0,
        0.0,
        1.0,
        2.220446049250313e-16,
        0.0,
        0.0,
        0.0,
        0.0,
        1.0
      ],
      "name": "Sketchfab_model"
    },
    {
      "children": [
        2,
        3,
        4,
        5,
        6,
        7,
        8,
        9
      ],
      "name": "Vikram lander.obj.cleaner.materialmerger.gles"
    },
    {
      "mesh": 0,
      "name": "Object_2"
    },
    {
      "mesh": 1,
      "name": "Object_3"
    },
    {
      "mesh": 2,
      "name": "Object_4"
    },
    {
      "mesh": 3,
      "name": "Object_5"
    },
    {
      "mesh": 4,
      "name": "Object_6"
    },
    {
      "mesh": 5,
      "name": "Object_7"
    },
    {
      "mesh": 6,
      "name": "Object_8"
    },
    {
      "mesh": 7,
      "name": "Object_9"
    }
  ],
  "samplers": [
    {
      "magFilter": 9729,
      "minFilter": 9987,
      "wrapS": 10497,
      "wrapT": 10497
    }
  ],
  "scene": 0,
  "scenes": [
    {
      "name": "Sketchfab_Scene",
      "nodes": [
        0
      ]
    }
  ],
  "textures": [
    {
      "sampler": 0,
      "source": 0
    },
    {
      "sampler": 0,
      "source": 1
    }
  ]
}
